<?xml version="1.0" encoding="UTF-8" standalone="no"?>
<!-- Created with Inkscape (http://www.inkscape.org/) -->

<svg
   width="1000"
   height="500"
   viewBox="0 0 264.58333 132.29166"
   version="1.1"
   id="svg1"
   inkscape:version="1.3.2 (091e20e, 2023-11-25)"
   sodipodi:docname="logo_design.svg"
   xmlns:inkscape="http://www.inkscape.org/namespaces/inkscape"
   xmlns:sodipodi="http://sodipodi.sourceforge.net/DTD/sodipodi-0.dtd"
   xmlns="http://www.w3.org/2000/svg"
   xmlns:svg="http://www.w3.org/2000/svg">
  <sodipodi:namedview
     id="namedview1"
     pagecolor="#505050"
     bordercolor="#ffffff"
     borderopacity="1"
     inkscape:showpageshadow="0"
     inkscape:pageopacity="0"
     inkscape:pagecheckerboard="1"
     inkscape:deskcolor="#454545"
     inkscape:document-units="mm"
     inkscape:zoom="0.71151547"
     inkscape:cx="-210.1149"
     inkscape:cy="-434.2843"
     inkscape:window-width="1512"
     inkscape:window-height="916"
     inkscape:window-x="0"
     inkscape:window-y="38"
     inkscape:window-maximized="0"
     inkscape:current-layer="g21" />
  <defs
     id="defs1">
    <inkscape:path-effect
       effect="powerclip"
       id="path-effect13"
       is_visible="true"
       lpeversion="1"
       inverse="true"
       flatten="false"
       hide_clip="false"
       message="Use fill-rule evenodd on &lt;b&gt;fill and stroke&lt;/b&gt; dialog if no flatten result after convert clip to paths." />
    <inkscape:path-effect
       effect="perspective-envelope"
       up_left_point="55.325097,-114.77856"
       up_right_point="183.58259,-115.35622"
       down_left_point="44.551304,-64.483086"
       down_right_point="172.45047,-64.483086"
       id="path-effect21"
       is_visible="true"
       lpeversion="1"
       deform_type="perspective"
       horizontal_mirror="false"
       vertical_mirror="false"
       overflow_perspective="false" />
    <inkscape:path-effect
       effect="perspective-envelope"
       up_left_point="60.214971,-120.07593"
       up_right_point="154.65084,-119.8386"
       down_left_point="44.551304,-64.483086"
       down_right_point="172.45047,-64.483086"
       id="path-effect17"
       is_visible="true"
       lpeversion="1"
       deform_type="perspective"
       horizontal_mirror="false"
       vertical_mirror="false"
       overflow_perspective="false" />
    <inkscape:path-effect
       effect="perspective-envelope"
       up_left_point="44.551304,-121.26257"
       up_right_point="172.45047,-121.26257"
       down_left_point="44.551304,-64.483086"
       down_right_point="172.45047,-64.483086"
       id="path-effect16"
       is_visible="true"
       lpeversion="1"
       deform_type="perspective"
       horizontal_mirror="false"
       vertical_mirror="false"
       overflow_perspective="false" />
    <inkscape:path-effect
       effect="bool_op"
       operand-path=""
       id="path-effect15"
       is_visible="true"
       lpeversion="1"
       operation="inters"
       swap-operands="false"
       filltype-this="from-curve"
       filter=""
       filltype-operand="from-curve" />
    <filter
       id="selectable_hidder_filter"
       width="1.0756679"
       height="1.1663774"
       x="-0.031141382"
       y="-0.08318868"
       style="color-interpolation-filters:sRGB;"
       inkscape:label="LPE boolean visibility">
      <feComposite
         id="boolops_hidder_primitive"
         result="composite1"
         operator="arithmetic"
         in2="SourceGraphic"
         in="BackgroundImage" />
    </filter>
    <inkscape:path-effect
       effect="bool_op"
       operand-path=""
       id="path-effect14"
       is_visible="true"
       lpeversion="1"
       operation="inters"
       swap-operands="false"
       filltype-this="from-curve"
       filter=""
       filltype-operand="from-curve" />
    <inkscape:path-effect
       effect="perspective-envelope"
       up_left_point="46.044591,22.035295"
       up_right_point="187.11717,22.035295"
       down_left_point="8.8210297,108.59588"
       down_right_point="143.2267,108.59588"
       id="path-effect12"
       is_visible="true"
       lpeversion="1"
       deform_type="envelope_deformation"
       horizontal_mirror="false"
       vertical_mirror="false"
       overflow_perspective="false" />
    <inkscape:path-effect
       effect="fill_between_many"
       id="path-effect11"
       is_visible="true"
       lpeversion="1.2"
       linkedpaths=""
       method="bsplinespiro"
       join="true"
       close="true"
       autoreverse="true" />
    <inkscape:path-effect
       effect="lattice2"
       gridpoint0="8.8210297,21.479719"
       gridpoint1="143.2267,21.479719"
       gridpoint2="8.8210297,108.59588"
       gridpoint3="143.2267,108.59588"
       gridpoint4="42.422447,21.479719"
       gridpoint5="109.62528,21.479719"
       gridpoint6="42.422447,108.59588"
       gridpoint7="109.62528,108.59588"
       gridpoint8x9="76.023865,21.479719"
       gridpoint10x11="76.023865,108.59588"
       gridpoint12="8.8210297,43.258759"
       gridpoint13="143.2267,43.258759"
       gridpoint14="8.8210297,86.81684"
       gridpoint15="143.2267,86.81684"
       gridpoint16="42.422447,43.258759"
       gridpoint17="109.62528,43.258759"
       gridpoint18="42.422447,86.81684"
       gridpoint19="109.62528,86.81684"
       gridpoint20x21="76.023865,43.258759"
       gridpoint22x23="76.023865,86.81684"
       gridpoint24x26="8.8210297,65.037799"
       gridpoint25x27="143.2267,65.037799"
       gridpoint28x30="42.422447,65.037799"
       gridpoint29x31="109.62528,65.037799"
       gridpoint32x33x34x35="76.023865,65.037799"
       id="path-effect10"
       is_visible="true"
       lpeversion="1"
       horizontal_mirror="false"
       vertical_mirror="false"
       perimetral="false"
       live_update="true" />
    <inkscape:path-effect
       effect="skeletal"
       id="path-effect9"
       is_visible="true"
       lpeversion="1"
       pattern="M 0,0 H 1"
       copytype="single_stretched"
       prop_scale="1"
       scale_y_rel="false"
       spacing="0"
       normal_offset="0"
       tang_offset="0"
       prop_units="false"
       vertical_pattern="false"
       hide_knot="false"
       fuse_tolerance="0" />
    <inkscape:path-effect
       effect="copy_rotate"
       starting_point="0,0"
       origin="8.8210297,65.037799"
       id="path-effect8"
       is_visible="true"
       lpeversion="1.2"
       lpesatellites=""
       method="normal"
       num_copies="6"
       starting_angle="0"
       rotation_angle="60"
       gap="-0.01"
       copies_to_360="true"
       mirror_copies="false"
       split_items="false"
       link_styles="false" />
    <inkscape:path-effect
       effect="slice"
       start_point="76.023865,21.479719"
       end_point="76.023865,108.59588"
       center_point="76.023865,65.037799"
       id="path-effect7"
       is_visible="true"
       lpeversion="1.2"
       lpesatellites=""
       allow_transforms="true" />
    <inkscape:path-effect
       effect="sketch"
       id="path-effect6"
       is_visible="true"
       lpeversion="1"
       nbiter_approxstrokes="1.8374656"
       parallel_offset="5;1"
       strokelength="100"
       strokelength_rdm="0.3;1"
       strokeoverlap="0.3"
       strokeoverlap_rdm="0.3;1"
       ends_tolerance="0.1;1"
       tremble_size="5;1"
       tremble_frequency="1"
       nbtangents="5"
       tgt_places_rdmness="1;1"
       tgtlength="100"
       tgtlength_rdm="0.3;1"
       tgtscale="10" />
    <inkscape:path-effect
       effect="transform_2pts"
       start="8.8210297,65.037799"
       end="143.2267,65.037799"
       id="path-effect5"
       is_visible="true"
       lpeversion="1"
       first_knot="1"
       last_knot="2"
       helper_size="3"
       stretch="1"
       offset="0"
       elastic="true"
       from_original_width="false"
       flip_vertical="false"
       flip_horizontal="false"
       lock_length="false"
       lock_angle="false" />
    <inkscape:path-effect
       effect="construct_grid"
       id="path-effect4"
       is_visible="true"
       lpeversion="1"
       nr_x="2"
       nr_y="5" />
    <inkscape:path-effect
       effect="bounding_box"
       linkedpath=""
       id="path-effect3"
       is_visible="true"
       lpeversion="1.3"
       visualbounds="false" />
    <inkscape:path-effect
       effect="lattice2"
       gridpoint0="8.8210297,21.479719"
       gridpoint1="143.2267,21.479719"
       gridpoint2="8.8210297,108.59588"
       gridpoint3="143.2267,108.59588"
       gridpoint4="42.422447,21.479719"
       gridpoint5="109.62528,21.479719"
       gridpoint6="42.422447,108.59588"
       gridpoint7="109.62528,108.59588"
       gridpoint8x9="76.023865,21.479719"
       gridpoint10x11="76.023865,108.59588"
       gridpoint12="8.8210297,43.258759"
       gridpoint13="143.2267,43.258759"
       gridpoint14="8.8210297,86.81684"
       gridpoint15="143.2267,86.81684"
       gridpoint16="42.422447,43.258759"
       gridpoint17="109.62528,43.258759"
       gridpoint18="42.422447,86.81684"
       gridpoint19="109.62528,86.81684"
       gridpoint20x21="76.023865,43.258759"
       gridpoint22x23="76.023865,86.81684"
       gridpoint24x26="8.8210297,65.037799"
       gridpoint25x27="143.2267,65.037799"
       gridpoint28x30="42.422447,65.037799"
       gridpoint29x31="109.62528,65.037799"
       gridpoint32x33x34x35="76.023865,65.037799"
       id="path-effect2"
       is_visible="true"
       lpeversion="1"
       horizontal_mirror="false"
       vertical_mirror="false"
       perimetral="false"
       live_update="true" />
    <inkscape:path-effect
       effect="perspective-envelope"
       up_left_point="8.8210297,21.479719"
       up_right_point="143.2267,21.479719"
       down_left_point="8.8210297,108.59588"
       down_right_point="143.2267,108.59588"
       id="path-effect1"
       is_visible="true"
       lpeversion="1"
       deform_type="perspective"
       horizontal_mirror="false"
       vertical_mirror="false"
       overflow_perspective="false" />
    <clipPath
       clipPathUnits="userSpaceOnUse"
       id="clipPath7">
      <ellipse
         style="display:none;fill:none;fill-opacity:1;fill-rule:evenodd;stroke:#000000;stroke-width:9.29997;stroke-linecap:butt;stroke-linejoin:miter;stroke-dasharray:none;stroke-dashoffset:1313.39;stroke-opacity:1"
         id="ellipse7"
         cx="47.485077"
         cy="-497.16055"
         rx="56.490868"
         ry="13.713363" />
    </clipPath>
    <filter
       id="mask-powermask-path-effect20_inverse"
       inkscape:label="filtermask-powermask-path-effect20"
       style="color-interpolation-filters:sRGB"
       height="100"
       width="100"
       x="-50"
       y="-50">
      <feColorMatrix
         id="mask-powermask-path-effect20_primitive1"
         values="1"
         type="saturate"
         result="fbSourceGraphic" />
      <feColorMatrix
         id="mask-powermask-path-effect20_primitive2"
         values="-1 0 0 0 1 0 -1 0 0 1 0 0 -1 0 1 0 0 0 1 0 "
         in="fbSourceGraphic" />
    </filter>
  </defs>
  <g
     inkscape:label="Layer 1"
     inkscape:groupmode="layer"
     id="layer1"
     style="display:inline">
    <g
       id="g28"
       transform="translate(141.10986,-226.07924)">
      <g
         id="g1"
         inkscape:path-effect="#path-effect12"
         inkscape:label="g1"
         style="fill:#000000;fill-opacity:1;stroke:#000000;stroke-width:10.2;stroke-linejoin:bevel;stroke-dasharray:none;stroke-opacity:1"
         transform="translate(0,-3.1965626)">
        <path
           style="font-size:126.445px;font-family:Monospace;-inkscape-font-specification:Monospace;fill:#000000;fill-opacity:1;fill-rule:evenodd;stroke:#000000;stroke-width:10.2;stroke-linecap:round;stroke-linejoin:bevel;stroke-dasharray:none;stroke-opacity:1"
           d="M 37.391944,108.59588 H 8.8210297 L 45.829612,22.535213 h 29.73586 l -3.892329,8.721952 H 48.718389 l -11.559012,26.6538 H 58.90077 l -3.888067,8.721953 H 33.376908 L 18.961206,99.873926 h 22.32423 z"
           id="text1"
           aria-label="Exo"
           sodipodi:nodetypes="ccccccccccccc"
           inkscape:original-d="M 54.323942,108.59588 H 8.8210297 V 21.479719 H 53.953498 v 8.828923 h -35.00699 v 26.980696 h 33.648694 v 8.828924 H 18.946508 v 33.648693 h 35.377434 z" />
        <path
           d="M 102.084,81.828663 H 94.423035 L 92.910128,58.964847 69.698996,81.828663 H 62.473309 L 92.163948,52.576425 88.972546,23.436263 h 8.048331 l 2.034039,22.695705 23.369904,-22.695705 h 7.46382 l -30.045669,28.80393 z m 63.92951,-59.793368 c 6.44958,0 10.17312,2.801939 11.15307,8.405815 0.95667,5.603878 -0.89424,12.982317 -5.53526,22.135315 -4.67891,9.22772 -10.30435,16.662197 -16.85872,22.303435 -6.53088,5.64124 -12.90439,8.461852 -19.13809,8.461852 -6.26273,0 -9.86455,-2.801932 -10.82297,-8.405814 -0.93439,-5.641237 0.83187,-13.094394 5.31622,-22.359473 4.44819,-9.190359 9.90973,-16.568796 16.40203,-22.135315 6.53371,-5.603876 13.03412,-8.405815 19.48372,-8.405815 z m -26.60245,53.685137 c 4.13488,0 8.51625,-2.241548 13.15318,-6.724644 4.64897,-4.483104 8.58481,-9.918864 11.79848,-16.307285 3.3828,-6.724653 4.96149,-12.253812 4.72744,-16.587478 -0.24553,-4.333665 -2.52355,-6.500498 -6.82543,-6.500498 -4.33176,0 -8.74804,2.148155 -13.24033,6.444461 -4.4628,4.258947 -8.3583,9.806787 -11.69486,16.643515 -3.17247,6.500498 -4.65688,11.973619 -4.46211,16.419363 0.20135,4.408379 2.37961,6.612566 6.54363,6.612566 z"
           style="font-size:126.445px;font-family:Monospace;-inkscape-font-specification:Monospace;fill:#000000;fill-opacity:1;fill-rule:evenodd;stroke:#000000;stroke-width:10.2;stroke-linecap:round;stroke-linejoin:bevel;stroke-dasharray:none;stroke-opacity:1"
           id="path1"
           inkscape:original-d="M 137.05527,81.500376 H 125.03851 L 105.9892,58.356146 86.257108,81.500376 h -11.334 L 100.25392,51.889373 74.923108,22.39182 H 87.144712 L 106.2623,45.365877 125.72127,22.39182 h 11.334 L 111.86103,51.549017 Z M 190.85766,20.97367 c 9.78636,0 17.56997,2.836303 23.35074,8.508908 5.7808,5.672607 8.67121,13.141539 8.67121,22.406795 0,9.340893 -2.89041,16.866551 -8.67121,22.576976 -5.78077,5.710427 -13.56438,8.565632 -23.35074,8.565632 -9.83193,0 -17.63827,-2.836296 -23.41907,-8.508907 -5.73528,-5.710424 -8.6029,-13.25499 -8.6029,-22.633701 0,-9.303075 2.89038,-16.772005 8.67119,-22.406795 5.78078,-5.672605 13.56438,-8.508908 23.35078,-8.508908 z m 0,54.34356 c 6.46357,0 11.56157,-2.269039 15.29406,-6.807119 3.73248,-4.538087 5.59875,-10.040514 5.59875,-16.507286 0,-6.807127 -1.84349,-12.404099 -5.53047,-16.790915 -3.68696,-4.386816 -8.80775,-6.580224 -15.36234,-6.580224 -6.60013,0 -11.72094,2.174501 -15.36236,6.523499 -3.64145,4.311181 -5.46218,9.927063 -5.46218,16.84764 0,6.580224 1.8435,12.12047 5.53046,16.620739 3.68697,4.462446 8.78497,6.693666 15.29408,6.693666 z" />
      </g>
      <text
         xml:space="preserve"
         style="font-style:normal;font-variant:normal;font-weight:normal;font-stretch:normal;font-size:26.4583px;font-family:Monospace;-inkscape-font-specification:Monospace;fill:#000000;fill-opacity:1;fill-rule:evenodd;stroke:#000000;stroke-width:2.3;stroke-linecap:round;stroke-linejoin:bevel;stroke-dasharray:none;stroke-opacity:1"
         x="56.186226"
         y="107.17169"
         id="text12"><tspan
           sodipodi:role="line"
           id="tspan12"
           style="font-size:26.4583px;stroke-width:2.3;stroke-dasharray:none"
           x="56.186226"
           y="107.17169">Conquest</tspan></text>
    </g>
    <g
       id="g14"
       inkscape:path-effect="#path-effect17"
       transform="translate(-3.919504,44.317424)">
      <path
         d="m 73.445954,-65.861029 -28.505905,-0.0018 15.060908,-53.453555 21.090769,0.0523 -0.611653,4.14648 -16.787711,-0.0385 -3.561285,14.15406 17.554311,0.029 -0.785548,5.183552 -18.073842,-0.0256 -5.77106,22.936643 21.417248,0.0081 z m 53.909476,0.0034 -6.99836,-4.36e-4 -14.05898,-25.693987 -13.400508,25.692276 -7.02025,-4.38e-4 17.538088,-31.040072 -12.815723,-22.340184 5.413005,0.0134 10.175218,17.5656 9.87008,-17.51592 5.17078,0.0128 -12.09956,22.272653 z m 13.43824,-54.015751 c 4.50692,0.0113 8.44039,1.78961 11.91778,5.45722 3.65473,3.81949 6.806,9.71239 9.50873,18.117666 2.96332,9.215727 3.95882,16.91709 2.7006,22.61661 -1.33356,6.040766 -5.0908,9.198838 -11.21349,9.198838 -6.07459,0 -11.29694,-3.144545 -15.47669,-9.16312 -3.92724,-5.712538 -6.53228,-13.443727 -7.87196,-22.698365 -1.21485,-8.392309 -0.81805,-14.287409 1.04028,-18.119939 1.77387,-3.65837 4.88599,-5.42025 9.39475,-5.40891 z m 11.25308,48.267765 c 7.75671,0.0025 9.03689,-8.951069 4.47072,-24.701119 -3.89277,-13.427306 -8.67256,-19.424496 -14.7614,-19.438656 -2.96758,-0.007 -4.92896,1.50274 -5.91116,4.61651 -1.00426,3.21469 -0.95933,8.05353 0.23,14.792609 1.29964,7.364152 3.29421,13.402308 5.99084,17.797697 2.81517,4.567646 6.17523,6.931728 9.981,6.932959 z"
         id="text13"
         clip-path="none"
         style="font-size:79.375px;font-family:Monospace;-inkscape-font-specification:Monospace;fill-rule:evenodd;stroke:#000000;stroke-width:5.9;stroke-linecap:round;stroke-linejoin:miter"
         aria-label="EXO"
         inkscape:original-d="M 74.683254,-31.037898 H 46.119106 V -85.724485 H 74.45071 v 5.5423 H 52.475307 v 16.93695 h 21.122742 v 5.542298 H 52.475307 v 21.122741 h 22.207947 z m 54.221496,0 h -7.05383 L 107.97579,-53.439632 94.216945,-31.037898 H 87.163112 L 104.64266,-58.904414 87.240627,-85.724485 h 7.286377 l 13.448786,21.665346 13.56507,-21.665346 h 6.97632 l -17.13074,26.820071 z m 26.27746,-55.733037 q 9.18549,0 13.9914,7.28638 4.84466,7.24762 4.84466,21.122743 0,13.797607 -4.8059,21.083984 -4.80591,7.286377 -14.03016,7.286377 -9.14672,0 -13.99139,-7.247619 -4.80591,-7.286377 -4.80591,-21.122742 0,-13.836363 4.80591,-21.122743 4.80591,-7.28638 13.99139,-7.28638 z m 0,51.19843 q 12.09229,0 12.09229,-22.789307 0,-22.828063 -12.09229,-22.828063 -5.89111,0 -8.9917,5.92987 -3.06182,5.89111 -3.06182,16.898193 0,11.123352 3.06182,16.975708 3.06183,5.813599 8.9917,5.813599 z" />
      <g
         id="g15"
         transform="translate(1.5678016,34.491635)">
        <path
           d="m 58.986209,-112.1814 c -1.517335,0.75151 -3.173961,1.12895 -4.961327,1.12797 -2.236654,-0.001 -3.776276,-0.62003 -4.610832,-1.84512 -0.816408,-1.21026 -0.908438,-2.93473 -0.294107,-5.14615 0.580539,-2.08977 1.559163,-3.69209 2.932639,-4.83029 1.358427,-1.13023 3.108492,-1.68898 5.262194,-1.68649 0.776144,9e-4 1.527088,0.0763 2.253708,0.22645 0.727734,0.15036 1.296867,0.34978 1.707363,0.59857 l -0.871676,1.12473 c -0.976291,-0.46811 -2.106048,-0.70202 -3.392937,-0.70343 -1.493897,-0.002 -2.711288,0.41049 -3.658312,1.24193 -0.953932,0.83295 -1.679078,2.16931 -2.176219,4.03031 -0.982992,3.67973 0.07194,5.57369 3.192535,5.57559 1.320921,8.1e-4 2.748733,-0.32277 4.275911,-0.96752 z m 11.504199,-12.36484 c 1.801161,0.002 3.088585,0.54366 3.869206,1.63412 0.798272,1.09725 1.048073,2.71822 0.737238,4.88981 -0.316196,2.20904 -1.06014,3.9309 -2.237187,5.13851 -1.191691,1.22263 -2.762956,1.83915 -4.702896,1.83809 -1.923974,-0.001 -3.27911,-0.61608 -4.058008,-1.8339 -0.760202,-1.20953 -0.90853,-2.93621 -0.45965,-5.15258 0.438799,-2.16659 1.245537,-3.7874 2.417153,-4.88892 1.157938,-1.08867 2.63269,-1.62722 4.434144,-1.62513 z m -2.089385,12.08747 c 2.525046,0.002 4.078177,-1.88892 4.643513,-5.56531 0.545492,-3.54734 -0.382497,-5.27386 -2.769449,-5.27649 -1.163061,-0.001 -2.132566,0.44296 -2.914004,1.33911 -0.780091,0.89885 -1.336455,2.20366 -1.667909,3.93104 -0.341095,1.77763 -0.289706,3.1565 0.162182,4.11891 0.457506,0.96538 1.307213,1.45199 2.545667,1.45274 z m 20.017369,1.15786 -2.218611,-0.001 -4.98862,-10.40619 -1.181946,10.40275 -2.000686,-0.001 1.606906,-12.9967 2.086996,0.002 4.975905,10.02054 0.815437,-10.0139 1.834813,0.002 z m 16.147638,2.32863 c -0.71313,0.18113 -1.41956,0.27167 -2.11832,0.27136 -1.80877,-8e-4 -2.967588,-0.80614 -3.470239,-2.39703 -0.317857,0.0459 -0.586592,0.0687 -0.806092,0.0686 -1.918757,-0.001 -3.362175,-0.61529 -4.321215,-1.83158 -0.939171,-1.20802 -1.345602,-2.93259 -1.229796,-5.14631 0.11321,-2.16406 0.675077,-3.78302 1.678589,-4.88331 0.991812,-1.08747 2.381953,-1.62542 4.178852,-1.62334 1.796601,0.002 3.161601,0.54306 4.103311,1.6323 0.96031,1.09602 1.45201,2.71514 1.46699,4.8842 0.0224,3.2399 -1.01072,5.40417 -3.11621,6.4184 0.29274,0.96005 0.86467,1.44376 1.71361,1.44419 0.47342,2.3e-4 0.99148,-0.0493 1.55376,-0.14844 z m -6.362581,-3.46831 c 2.518241,0.002 3.784141,-1.88659 3.797721,-5.55854 0.0131,-3.54324 -1.17076,-5.26782 -3.551637,-5.27044 -1.160102,-0.001 -2.060476,0.44247 -2.705633,1.33762 -0.643403,0.89783 -1.002907,2.20114 -1.074848,3.9265 -0.07403,1.77551 0.183637,3.15271 0.778346,4.11393 0.600748,0.96418 1.52093,1.45017 2.756051,1.45093 z m 19.562511,-3.11728 c 0.11944,1.55065 -0.19412,2.69897 -0.94628,3.43051 -0.7497,0.73701 -1.95053,1.10715 -3.59847,1.10625 -3.32098,-0.002 -5.02395,-1.52681 -5.10627,-4.50632 l -0.24158,-8.74362 1.86555,0.002 0.32361,8.60166 c 0.0807,2.14414 1.10939,3.23456 3.08459,3.23577 0.99149,6e-4 1.70107,-0.25793 2.12711,-0.77358 0.43183,-0.51294 0.60851,-1.34113 0.53238,-2.47666 l -0.57523,-8.58089 1.86431,0.002 z m 14.93126,4.28166 -8.95091,-0.005 -1.36634,-12.97322 8.30202,0.01 0.18529,1.23711 -6.48153,-0.007 0.44795,3.88526 6.35874,0.006 0.19389,1.30616 -6.40199,-0.005 0.59341,5.14681 6.9099,0.004 z m 11.40915,-11.60396 c -1.01304,-0.25053 -1.948,-0.37603 -2.80686,-0.37697 -0.97295,-0.001 -1.73381,0.16894 -2.28406,0.51098 -0.54576,0.33749 -0.75989,0.82318 -0.64029,1.45934 0.14279,0.75955 1.08587,1.43293 2.83616,2.01818 1.30113,0.43668 2.16654,0.74102 2.59246,0.91182 0.43445,0.17109 0.88753,0.40671 1.35976,0.70732 0.47369,0.30153 0.87884,0.65952 1.21542,1.07459 0.34449,0.41062 0.57607,0.87607 0.69412,1.39715 0.29574,1.30537 -0.0291,2.33097 -0.98292,3.06785 -0.95434,0.73592 -2.19519,1.10554 -3.71734,1.10471 -1.47377,-8e-4 -2.80908,-0.23769 -4.00164,-0.70903 l 0.16365,-1.36975 c 1.37871,0.47152 2.55303,0.70839 3.51808,0.70898 1.12579,6.9e-4 1.97783,-0.23168 2.55414,-0.69545 0.5802,-0.46797 0.78151,-1.1058 0.60708,-1.91021 -0.12819,-0.59116 -0.45298,-1.08853 -0.97332,-1.49352 -0.51952,-0.40951 -1.40278,-0.82378 -2.64747,-1.24277 -1.27308,-0.42946 -2.09762,-0.71979 -2.4773,-0.87221 -0.37245,-0.15825 -0.75499,-0.37379 -1.14723,-0.64624 -0.39114,-0.27169 -0.70971,-0.57557 -0.95587,-0.91133 -0.24531,-0.33458 -0.40262,-0.69761 -0.47235,-1.08874 -0.18351,-1.02934 0.15432,-1.82398 1.00804,-2.38967 0.84852,-0.56224 1.99973,-0.84123 3.45738,-0.83954 1.06478,0.001 2.14854,0.12535 3.25346,0.37283 z m 16.45233,-0.18217 -4.95658,-0.005 3.32296,11.80619 -1.97432,-0.001 -3.20651,-11.80712 -4.98246,-0.005 -0.28164,-1.14927 11.72494,0.0134 z"
           id="text14"
           style="font-size:26.4583px;font-family:Monospace;-inkscape-font-specification:Monospace;fill-rule:evenodd;stroke:#1b1b1b;stroke-width:11.2;stroke-linecap:round;stroke-linejoin:bevel"
           aria-label="CONQUEST"
           inkscape:original-d="m 57.580909,-75.101894 q -2.14457,0.963917 -4.973851,0.963917 -3.539831,0 -5.387261,-1.575795 -1.834511,-1.575796 -1.834511,-4.559749 0,-2.883371 1.782835,-4.509458 1.782834,-1.634471 5.438937,-1.634471 1.317748,0 2.609657,0.217932 1.291909,0.217931 2.079974,0.57835 l -0.697631,1.081264 q -1.821592,-0.670552 -3.992,-0.670552 -2.519222,0 -3.746536,1.190229 -1.227314,1.181847 -1.227314,3.746706 0,4.928552 4.97385,4.928552 2.105812,0 4.314977,-0.838189 z m 9.9477,-11.315556 q 3.061825,0 4.663792,1.575798 1.614887,1.567413 1.614887,4.568131 0,2.983953 -1.601968,4.559749 -1.601967,1.575795 -4.676711,1.575795 -3.048906,0 -4.663792,-1.567413 -1.601967,-1.575796 -1.601967,-4.568131 0,-2.992336 1.601967,-4.568131 1.601967,-1.575798 4.663792,-1.575798 z m 0,11.072481 q 4.030757,0 4.030757,-4.928552 0,-4.936935 -4.030757,-4.936935 -1.963702,0 -2.997229,1.28243 -1.020608,1.274047 -1.020608,3.654505 0,2.405602 1.020608,3.671268 1.020608,1.257284 2.997229,1.257284 z m 21.406935,0.980681 h -2.351275 l -6.53706,-9.337427 v 9.337427 h -2.118731 v -11.826848 h 2.364194 l 6.562898,9.253608 v -9.253608 h 2.079974 z m 17.104876,1.952981 q -1.12396,0.226311 -2.22208,0.226311 -2.8422,0 -3.68194,-2.011654 -0.503839,0.05867 -0.852659,0.05867 -3.048911,0 -4.663797,-1.567413 -1.601967,-1.575796 -1.601967,-4.568131 0,-2.992336 1.601967,-4.568131 1.601967,-1.575796 4.663797,-1.575796 3.061819,0 4.663789,1.575796 1.61489,1.567413 1.61489,4.568131 0,4.358583 -3.35897,5.666158 0.47801,1.223756 1.8216,1.223756 0.7493,0 1.64072,-0.125728 z m -6.756679,-2.933662 q 4.030759,0 4.030759,-4.928552 0,-4.936935 -4.030759,-4.936935 -1.963707,0 -2.997234,1.28243 -1.020608,1.274047 -1.020608,3.654505 0,2.405602 1.020608,3.671268 1.020608,1.257284 2.997234,1.257284 z m 21.148549,-2.740879 q 0,2.053564 -1.29191,3.000718 -1.27899,0.947153 -3.90156,0.947153 -5.28391,0 -5.28391,-3.914343 v -8.138816 h 2.11873 v 8.013088 q 0,2.833079 3.16518,2.833079 1.58905,0 2.32543,-0.670551 0.74931,-0.670552 0.74931,-2.179292 v -7.996324 h 2.11873 z m 15.52875,3.72156 h -9.52137 v -11.826848 h 9.44386 v 1.19861 h -7.32513 v 3.662887 h 7.04091 v 1.19861 h -7.04091 v 4.568131 h 7.40264 z m 14.86988,-10.519274 q -1.62781,-0.360421 -3.08767,-0.360421 -1.65364,0 -2.70009,0.494531 -1.03353,0.486151 -1.03353,1.391394 0,1.072883 2.72593,1.885926 2.01538,0.603497 2.66134,0.838189 0.65887,0.234693 1.33066,0.645406 0.6718,0.410713 1.07229,0.972299 0.41341,0.553205 0.41341,1.248903 0,1.726669 -1.79576,2.682205 -1.78283,0.947153 -4.21162,0.947153 -2.35127,0 -4.12119,-0.603496 l 0.43925,-1.181846 q 2.07997,0.611877 3.63026,0.611877 1.80868,0 2.89388,-0.603496 1.09812,-0.611878 1.09812,-1.676378 0,-0.787898 -0.71055,-1.332721 -0.71055,-0.553205 -2.62257,-1.123173 -1.9637,-0.586733 -2.54506,-0.79628 -0.56844,-0.217929 -1.13688,-0.595115 -0.56844,-0.377185 -0.8785,-0.84657 -0.31006,-0.469386 -0.31006,-1.022591 0,-1.466831 1.62781,-2.288256 1.6278,-0.821428 4.12119,-0.821428 1.82159,0 3.61734,0.360421 z m 18.69392,-0.192783 h -5.6198 v 10.712057 h -2.10582 v -10.712057 h -5.64564 v -1.114791 h 13.37126 z" />
        <path
           d="m 58.986209,-112.1814 c -1.517335,0.75151 -3.173961,1.12895 -4.961327,1.12797 -2.236654,-0.001 -3.776276,-0.62003 -4.610832,-1.84512 -0.816408,-1.21026 -0.908438,-2.93473 -0.294107,-5.14615 0.580539,-2.08977 1.559163,-3.69209 2.932639,-4.83029 1.358427,-1.13023 3.108492,-1.68898 5.262194,-1.68649 0.776144,9e-4 1.527088,0.0763 2.253708,0.22645 0.727734,0.15036 1.296867,0.34978 1.707363,0.59857 l -0.871676,1.12473 c -0.976291,-0.46811 -2.106048,-0.70202 -3.392937,-0.70343 -1.493897,-0.002 -2.711288,0.41049 -3.658312,1.24193 -0.953932,0.83295 -1.679078,2.16931 -2.176219,4.03031 -0.982992,3.67973 0.07194,5.57369 3.192535,5.57559 1.320921,8.1e-4 2.748733,-0.32277 4.275911,-0.96752 z m 11.504199,-12.36484 c 1.801161,0.002 3.088585,0.54366 3.869206,1.63412 0.798272,1.09725 1.048073,2.71822 0.737238,4.88981 -0.316196,2.20904 -1.06014,3.9309 -2.237187,5.13851 -1.191691,1.22263 -2.762956,1.83915 -4.702896,1.83809 -1.923974,-0.001 -3.27911,-0.61608 -4.058008,-1.8339 -0.760202,-1.20953 -0.90853,-2.93621 -0.45965,-5.15258 0.438799,-2.16659 1.245537,-3.7874 2.417153,-4.88892 1.157938,-1.08867 2.63269,-1.62722 4.434144,-1.62513 z m -2.089385,12.08747 c 2.525046,0.002 4.078177,-1.88892 4.643513,-5.56531 0.545492,-3.54734 -0.382497,-5.27386 -2.769449,-5.27649 -1.163061,-0.001 -2.132566,0.44296 -2.914004,1.33911 -0.780091,0.89885 -1.336455,2.20366 -1.667909,3.93104 -0.341095,1.77763 -0.289706,3.1565 0.162182,4.11891 0.457506,0.96538 1.307213,1.45199 2.545667,1.45274 z m 20.017369,1.15786 -2.218611,-0.001 -4.98862,-10.40619 -1.181946,10.40275 -2.000686,-0.001 1.606906,-12.9967 2.086996,0.002 4.975905,10.02054 0.815437,-10.0139 1.834813,0.002 z m 16.147638,2.32863 c -0.71313,0.18113 -1.41956,0.27167 -2.11832,0.27136 -1.80877,-8e-4 -2.967588,-0.80614 -3.470239,-2.39703 -0.317857,0.0459 -0.586592,0.0687 -0.806092,0.0686 -1.918757,-0.001 -3.362175,-0.61529 -4.321215,-1.83158 -0.939171,-1.20802 -1.345602,-2.93259 -1.229796,-5.14631 0.11321,-2.16406 0.675077,-3.78302 1.678589,-4.88331 0.991812,-1.08747 2.381953,-1.62542 4.178852,-1.62334 1.796601,0.002 3.161601,0.54306 4.103311,1.6323 0.96031,1.09602 1.45201,2.71514 1.46699,4.8842 0.0224,3.2399 -1.01072,5.40417 -3.11621,6.4184 0.29274,0.96005 0.86467,1.44376 1.71361,1.44419 0.47342,2.3e-4 0.99148,-0.0493 1.55376,-0.14844 z m -6.362581,-3.46831 c 2.518241,0.002 3.784141,-1.88659 3.797721,-5.55854 0.0131,-3.54324 -1.17076,-5.26782 -3.551637,-5.27044 -1.160102,-0.001 -2.060476,0.44247 -2.705633,1.33762 -0.643403,0.89783 -1.002907,2.20114 -1.074848,3.9265 -0.07403,1.77551 0.183637,3.15271 0.778346,4.11393 0.600748,0.96418 1.52093,1.45017 2.756051,1.45093 z m 19.562511,-3.11728 c 0.11944,1.55065 -0.19412,2.69897 -0.94628,3.43051 -0.7497,0.73701 -1.95053,1.10715 -3.59847,1.10625 -3.32098,-0.002 -5.02395,-1.52681 -5.10627,-4.50632 l -0.24158,-8.74362 1.86555,0.002 0.32361,8.60166 c 0.0807,2.14414 1.10939,3.23456 3.08459,3.23577 0.99149,6e-4 1.70107,-0.25793 2.12711,-0.77358 0.43183,-0.51294 0.60851,-1.34113 0.53238,-2.47666 l -0.57523,-8.58089 1.86431,0.002 z m 14.93126,4.28166 -8.95091,-0.005 -1.36634,-12.97322 8.30202,0.01 0.18529,1.23711 -6.48153,-0.007 0.44795,3.88526 6.35874,0.006 0.19389,1.30616 -6.40199,-0.005 0.59341,5.14681 6.9099,0.004 z m 11.40915,-11.60396 c -1.01304,-0.25053 -1.948,-0.37603 -2.80686,-0.37697 -0.97295,-0.001 -1.73381,0.16894 -2.28406,0.51098 -0.54576,0.33749 -0.75989,0.82318 -0.64029,1.45934 0.14279,0.75955 1.08587,1.43293 2.83616,2.01818 1.30113,0.43668 2.16654,0.74102 2.59246,0.91182 0.43445,0.17109 0.88753,0.40671 1.35976,0.70732 0.47369,0.30153 0.87884,0.65952 1.21542,1.07459 0.34449,0.41062 0.57607,0.87607 0.69412,1.39715 0.29574,1.30537 -0.0291,2.33097 -0.98292,3.06785 -0.95434,0.73592 -2.19519,1.10554 -3.71734,1.10471 -1.47377,-8e-4 -2.80908,-0.23769 -4.00164,-0.70903 l 0.16365,-1.36975 c 1.37871,0.47152 2.55303,0.70839 3.51808,0.70898 1.12579,6.9e-4 1.97783,-0.23168 2.55414,-0.69545 0.5802,-0.46797 0.78151,-1.1058 0.60708,-1.91021 -0.12819,-0.59116 -0.45298,-1.08853 -0.97332,-1.49352 -0.51952,-0.40951 -1.40278,-0.82378 -2.64747,-1.24277 -1.27308,-0.42946 -2.09762,-0.71979 -2.4773,-0.87221 -0.37245,-0.15825 -0.75499,-0.37379 -1.14723,-0.64624 -0.39114,-0.27169 -0.70971,-0.57557 -0.95587,-0.91133 -0.24531,-0.33458 -0.40262,-0.69761 -0.47235,-1.08874 -0.18351,-1.02934 0.15432,-1.82398 1.00804,-2.38967 0.84852,-0.56224 1.99973,-0.84123 3.45738,-0.83954 1.06478,0.001 2.14854,0.12535 3.25346,0.37283 z m 16.45233,-0.18217 -4.95658,-0.005 3.32296,11.80619 -1.97432,-0.001 -3.20651,-11.80712 -4.98246,-0.005 -0.28164,-1.14927 11.72494,0.0134 z"
           id="text15"
           style="font-size:26.4583px;font-family:Monospace;-inkscape-font-specification:Monospace;fill-rule:evenodd;stroke:#000000;stroke-width:3.4;stroke-linecap:butt;stroke-linejoin:miter;fill:none;fill-opacity:1;stroke-opacity:1;stroke-dasharray:none;stroke-miterlimit:3.2"
           aria-label="CONQUEST"
           inkscape:original-d="m 57.580909,-75.101894 q -2.14457,0.963917 -4.973851,0.963917 -3.539831,0 -5.387261,-1.575795 -1.834511,-1.575796 -1.834511,-4.559749 0,-2.883371 1.782835,-4.509458 1.782834,-1.634471 5.438937,-1.634471 1.317748,0 2.609657,0.217932 1.291909,0.217931 2.079974,0.57835 l -0.697631,1.081264 q -1.821592,-0.670552 -3.992,-0.670552 -2.519222,0 -3.746536,1.190229 -1.227314,1.181847 -1.227314,3.746706 0,4.928552 4.97385,4.928552 2.105812,0 4.314977,-0.838189 z m 9.9477,-11.315556 q 3.061825,0 4.663792,1.575798 1.614887,1.567413 1.614887,4.568131 0,2.983953 -1.601968,4.559749 -1.601967,1.575795 -4.676711,1.575795 -3.048906,0 -4.663792,-1.567413 -1.601967,-1.575796 -1.601967,-4.568131 0,-2.992336 1.601967,-4.568131 1.601967,-1.575798 4.663792,-1.575798 z m 0,11.072481 q 4.030757,0 4.030757,-4.928552 0,-4.936935 -4.030757,-4.936935 -1.963702,0 -2.997229,1.28243 -1.020608,1.274047 -1.020608,3.654505 0,2.405602 1.020608,3.671268 1.020608,1.257284 2.997229,1.257284 z m 21.406935,0.980681 h -2.351275 l -6.53706,-9.337427 v 9.337427 h -2.118731 v -11.826848 h 2.364194 l 6.562898,9.253608 v -9.253608 h 2.079974 z m 17.104876,1.952981 q -1.12396,0.226311 -2.22208,0.226311 -2.8422,0 -3.68194,-2.011654 -0.503839,0.05867 -0.852659,0.05867 -3.048911,0 -4.663797,-1.567413 -1.601967,-1.575796 -1.601967,-4.568131 0,-2.992336 1.601967,-4.568131 1.601967,-1.575796 4.663797,-1.575796 3.061819,0 4.663789,1.575796 1.61489,1.567413 1.61489,4.568131 0,4.358583 -3.35897,5.666158 0.47801,1.223756 1.8216,1.223756 0.7493,0 1.64072,-0.125728 z m -6.756679,-2.933662 q 4.030759,0 4.030759,-4.928552 0,-4.936935 -4.030759,-4.936935 -1.963707,0 -2.997234,1.28243 -1.020608,1.274047 -1.020608,3.654505 0,2.405602 1.020608,3.671268 1.020608,1.257284 2.997234,1.257284 z m 21.148549,-2.740879 q 0,2.053564 -1.29191,3.000718 -1.27899,0.947153 -3.90156,0.947153 -5.28391,0 -5.28391,-3.914343 v -8.138816 h 2.11873 v 8.013088 q 0,2.833079 3.16518,2.833079 1.58905,0 2.32543,-0.670551 0.74931,-0.670552 0.74931,-2.179292 v -7.996324 h 2.11873 z m 15.52875,3.72156 h -9.52137 v -11.826848 h 9.44386 v 1.19861 h -7.32513 v 3.662887 h 7.04091 v 1.19861 h -7.04091 v 4.568131 h 7.40264 z m 14.86988,-10.519274 q -1.62781,-0.360421 -3.08767,-0.360421 -1.65364,0 -2.70009,0.494531 -1.03353,0.486151 -1.03353,1.391394 0,1.072883 2.72593,1.885926 2.01538,0.603497 2.66134,0.838189 0.65887,0.234693 1.33066,0.645406 0.6718,0.410713 1.07229,0.972299 0.41341,0.553205 0.41341,1.248903 0,1.726669 -1.79576,2.682205 -1.78283,0.947153 -4.21162,0.947153 -2.35127,0 -4.12119,-0.603496 l 0.43925,-1.181846 q 2.07997,0.611877 3.63026,0.611877 1.80868,0 2.89388,-0.603496 1.09812,-0.611878 1.09812,-1.676378 0,-0.787898 -0.71055,-1.332721 -0.71055,-0.553205 -2.62257,-1.123173 -1.9637,-0.586733 -2.54506,-0.79628 -0.56844,-0.217929 -1.13688,-0.595115 -0.56844,-0.377185 -0.8785,-0.84657 -0.31006,-0.469386 -0.31006,-1.022591 0,-1.466831 1.62781,-2.288256 1.6278,-0.821428 4.12119,-0.821428 1.82159,0 3.61734,0.360421 z m 18.69392,-0.192783 h -5.6198 v 10.712057 h -2.10582 v -10.712057 h -5.64564 v -1.114791 h 13.37126 z" />
      </g>
    </g>
    <g
       id="g20"
       inkscape:path-effect="#path-effect21"
       transform="translate(159.07629,41.464998)">
      <path
         d="m 73.063022,-65.410734 -28.31351,0.0023 10.37667,-48.441574 28.157758,-0.12448 -1.060941,4.92951 -21.846951,0.087 -3.221709,15.024059 20.980252,-0.05532 -1.059185,4.922049 -20.974555,0.04608 -4.011622,18.707724 22.031466,-0.01151 z m 54.142958,-0.0045 -7.07326,5.86e-4 -9.57347,-19.931296 -18.051051,19.933587 -7.029664,5.83e-4 22.798485,-24.793283 -12.235068,-23.825793 7.281208,-0.0322 9.28327,19.258138 17.79419,-19.377848 7.014,-0.031 -22.38691,23.993217 z m 37.3031,-49.855086 c 6.19378,-0.0279 10.43952,2.12922 12.73255,6.47223 2.32488,4.32088 2.5801,10.628776 0.766,18.919098 -1.80289,8.239099 -4.80073,14.532407 -8.99154,18.880695 -4.1871,4.344431 -9.38305,6.515201 -15.58551,6.515201 -6.14359,0 -10.36863,-2.155055 -12.67968,-6.464304 -2.27943,-4.331176 -2.52402,-10.611718 -0.73342,-18.846135 1.79167,-8.239303 4.77321,-14.537415 8.94662,-18.893545 4.1771,-4.36001 9.35799,-6.55538 15.54498,-6.58324 z m -9.99135,45.803398 c 8.1346,-0.0036 13.69125,-6.799175 16.66334,-20.396714 2.98006,-13.634034 0.39027,-20.439494 -7.76274,-20.406384 -3.9677,0.0161 -7.37934,1.7978 -10.23566,5.34343 -2.82344,3.52021 -4.94861,8.559704 -6.37629,15.117784 -1.44207,6.624207 -1.51452,11.675544 -0.21776,15.156679 1.30195,3.458466 3.94432,5.186968 7.92911,5.185205 z"
         id="path17"
         clip-path="none"
         style="font-size:79.375px;font-family:Monospace;-inkscape-font-specification:Monospace;fill-rule:evenodd;stroke:#000000;stroke-width:5.9;stroke-linecap:round;stroke-linejoin:miter"
         aria-label="EXO"
         inkscape:original-d="M 74.683254,-31.037898 H 46.119106 V -85.724485 H 74.45071 v 5.5423 H 52.475307 v 16.93695 h 21.122742 v 5.542298 H 52.475307 v 21.122741 h 22.207947 z m 54.221496,0 h -7.05383 L 107.97579,-53.439632 94.216945,-31.037898 H 87.163112 L 104.64266,-58.904414 87.240627,-85.724485 h 7.286377 l 13.448786,21.665346 13.56507,-21.665346 h 6.97632 l -17.13074,26.820071 z m 26.27746,-55.733037 q 9.18549,0 13.9914,7.28638 4.84466,7.24762 4.84466,21.122743 0,13.797607 -4.8059,21.083984 -4.80591,7.286377 -14.03016,7.286377 -9.14672,0 -13.99139,-7.247619 -4.80591,-7.286377 -4.80591,-21.122742 0,-13.836363 4.80591,-21.122743 4.80591,-7.28638 13.99139,-7.28638 z m 0,51.19843 q 12.09229,0 12.09229,-22.789307 0,-22.828063 -12.09229,-22.828063 -5.89111,0 -8.9917,5.92987 -3.06182,5.89111 -3.06182,16.898193 0,11.123352 3.06182,16.975708 3.06183,5.813599 8.9917,5.813599 z" />
      <g
         id="g19"
         transform="translate(1.5678016,34.491635)">
        <path
           d="m 57.898947,-108.37792 c -1.53949,0.57035 -3.243633,0.85618 -5.112302,0.85761 -2.337089,0.002 -4.015189,-0.46174 -5.034918,-1.39049 -1.011053,-0.92862 -1.327931,-2.27316 -0.950712,-4.03389 0.364549,-1.7016 1.237862,-3.03325 2.620195,-3.99499 1.38378,-0.96697 3.283069,-1.45266 5.698357,-1.45686 0.870785,-0.002 1.719353,0.0614 2.545692,0.18865 0.826458,0.1273 1.477416,0.297 1.952814,0.5091 l -0.897654,0.9595 c -1.119236,-0.39425 -2.396023,-0.59016 -3.830244,-0.58781 -1.664258,0.003 -2.976803,0.35619 -3.937868,1.06026 -0.959815,0.69898 -1.601897,1.80544 -1.92636,3.31936 -0.623379,2.90864 0.706147,4.36131 3.989928,4.35849 1.390859,-0.001 2.869311,-0.24988 4.435448,-0.74616 z m 12.029603,-10.04437 c 2.028872,-0.004 3.474258,0.45997 4.335685,1.39057 0.871168,0.92574 1.1157,2.2764 0.733551,4.05173 -0.379966,1.76518 -1.201223,3.11423 -2.463566,4.04712 -1.262018,0.93266 -2.911287,1.39968 -4.947495,1.40123 -2.018365,0.002 -3.462068,-0.46033 -4.331575,-1.38554 -0.859788,-0.93006 -1.099753,-2.27904 -0.719939,-4.04721 0.379863,-1.76839 1.199876,-3.11918 2.460247,-4.05237 1.260695,-0.93343 2.904956,-1.402 4.933092,-1.40553 z m -2.11172,9.82055 c 2.669623,-0.002 4.318463,-1.46063 4.94566,-4.37545 0.628396,-2.9204 -0.393293,-4.37863 -3.064208,-4.37424 -1.300753,0.002 -2.37473,0.38293 -3.222046,1.14229 -0.837548,0.75425 -1.407458,1.83491 -1.709815,3.24196 -0.30552,1.42177 -0.200926,2.50623 0.313783,3.25352 0.515808,0.7424 1.427949,1.11305 2.736626,1.11192 z m 21.114591,0.85278 -2.343667,0.002 -4.724453,-8.28482 -1.786306,8.28992 -2.108582,0.002 2.261503,-10.49893 2.354287,-0.004 4.766951,8.21056 1.77364,-8.22182 2.074499,-0.004 z m 16.703129,1.7239 c -0.77823,0.13467 -1.53323,0.20221 -2.265,0.20266 -1.89356,0.001 -2.99082,-0.59427 -3.29226,-1.78626 -0.34305,0.035 -0.630707,0.0526 -0.86298,0.0528 -2.029802,0.002 -3.481437,-0.46163 -4.355375,-1.38946 -0.864161,-0.93268 -1.104766,-2.28548 -0.721859,-4.05865 0.382957,-1.7734 1.208334,-3.12801 2.476341,-4.06385 1.268334,-0.93608 2.922161,-1.40598 4.961793,-1.40952 2.04037,-0.004 3.4937,0.46125 4.35952,1.39448 0.87561,0.92836 1.12081,2.28285 0.73555,4.0632 -0.55952,2.58558 -2.04267,4.26693 -4.44872,5.04414 0.16154,0.72528 0.68992,1.08761 1.58522,1.08698 0.49936,-3.5e-4 1.05419,-0.038 1.66452,-0.113 z m -6.188262,-2.60391 c 2.684752,-0.002 4.343712,-1.46478 4.976022,-4.38785 0.63352,-2.92867 -0.39319,-4.39102 -3.07924,-4.38661 -1.30813,0.002 -2.388397,0.38403 -3.240918,1.14553 -0.842695,0.75639 -1.416409,1.84011 -1.721229,3.25114 -0.308008,1.4258 -0.2034,2.51332 0.313826,3.26273 0.518334,0.74449 1.435445,1.11619 2.751539,1.11506 z m 21.694022,-2.46003 c -0.26459,1.21971 -0.88966,2.11117 -1.87507,2.67436 -0.97658,0.56308 -2.34077,0.84524 -4.0923,0.84659 -3.5273,0.003 -5.03866,-1.15714 -4.53568,-3.47979 l 1.56927,-7.24649 2.12188,-0.004 -1.54587,7.13592 c -0.36425,1.68144 0.51,2.52117 2.62332,2.51935 1.06128,-9.2e-4 1.8811,-0.20064 2.45937,-0.5992 0.58698,-0.39862 0.97764,-1.0459 1.17193,-1.94187 l 1.5451,-7.12497 2.12505,-0.004 z m 14.8713,3.30317 -9.56437,0.007 2.28973,-10.54444 9.49198,-0.0163 -0.2327,1.06991 -7.36341,0.012 -0.70967,3.26693 7.07625,-0.009 -0.23261,1.06955 -7.07583,0.009 -0.88475,4.07293 7.43792,-0.007 z m 17.01888,-9.41047 c -1.04759,-0.21297 -2.06195,-0.31863 -3.0431,-0.31701 -1.11117,0.002 -2.05026,0.15059 -2.81735,0.44625 -0.75721,0.29062 -1.19448,0.70543 -1.31187,1.24445 -0.13912,0.63881 0.65386,1.19897 2.37933,1.68061 1.27572,0.3576 2.11549,0.60604 2.51914,0.74526 0.41234,0.13922 0.81763,0.33088 1.21586,0.57496 0.39826,0.2441 0.69555,0.53325 0.89185,0.86747 0.20608,0.32921 0.26393,0.70103 0.17356,1.11543 -0.22429,1.02846 -1.00205,1.82775 -2.33303,2.39782 -1.32087,0.56492 -2.7969,0.84795 -4.42799,0.8492 -1.57858,0.001 -2.92255,-0.17729 -4.03208,-0.53543 l 0.6718,-1.05524 c 1.3167,0.36288 2.49556,0.54391 3.53648,0.54302 1.21466,-0.001 2.22573,-0.18153 3.03311,-0.54149 0.81726,-0.36502 1.29505,-0.86451 1.43325,-1.49844 0.1023,-0.46923 -0.05,-0.86583 -0.45674,-1.18976 -0.40567,-0.32891 -1.21386,-0.6623 -2.42442,-1.00014 -1.24283,-0.34771 -2.04576,-0.58366 -2.40896,-0.70791 -0.35342,-0.12925 -0.69649,-0.30589 -1.02922,-0.52992 -0.33271,-0.22403 -0.57271,-0.4756 -0.72001,-0.75473 -0.14729,-0.27913 -0.18509,-0.58336 -0.11339,-0.91269 0.19012,-0.87326 0.88483,-1.55533 2.08435,-2.04625 1.19978,-0.49105 2.63731,-0.73807 4.31276,-0.74098 1.22434,-0.002 2.41685,0.10314 3.5775,0.31584 z m 18.92354,-0.20314 -5.68419,0.009 -2.09382,9.58227 -2.12734,0.002 2.09269,-9.58045 -5.70241,0.009 0.21755,-0.9969 13.51582,-0.0233 z"
           id="path18"
           style="font-size:26.4583px;font-family:Monospace;-inkscape-font-specification:Monospace;fill-rule:evenodd;stroke:#1b1b1b;stroke-width:11.2;stroke-linecap:round;stroke-linejoin:bevel"
           aria-label="CONQUEST"
           inkscape:original-d="m 57.580909,-75.101894 q -2.14457,0.963917 -4.973851,0.963917 -3.539831,0 -5.387261,-1.575795 -1.834511,-1.575796 -1.834511,-4.559749 0,-2.883371 1.782835,-4.509458 1.782834,-1.634471 5.438937,-1.634471 1.317748,0 2.609657,0.217932 1.291909,0.217931 2.079974,0.57835 l -0.697631,1.081264 q -1.821592,-0.670552 -3.992,-0.670552 -2.519222,0 -3.746536,1.190229 -1.227314,1.181847 -1.227314,3.746706 0,4.928552 4.97385,4.928552 2.105812,0 4.314977,-0.838189 z m 9.9477,-11.315556 q 3.061825,0 4.663792,1.575798 1.614887,1.567413 1.614887,4.568131 0,2.983953 -1.601968,4.559749 -1.601967,1.575795 -4.676711,1.575795 -3.048906,0 -4.663792,-1.567413 -1.601967,-1.575796 -1.601967,-4.568131 0,-2.992336 1.601967,-4.568131 1.601967,-1.575798 4.663792,-1.575798 z m 0,11.072481 q 4.030757,0 4.030757,-4.928552 0,-4.936935 -4.030757,-4.936935 -1.963702,0 -2.997229,1.28243 -1.020608,1.274047 -1.020608,3.654505 0,2.405602 1.020608,3.671268 1.020608,1.257284 2.997229,1.257284 z m 21.406935,0.980681 h -2.351275 l -6.53706,-9.337427 v 9.337427 h -2.118731 v -11.826848 h 2.364194 l 6.562898,9.253608 v -9.253608 h 2.079974 z m 17.104876,1.952981 q -1.12396,0.226311 -2.22208,0.226311 -2.8422,0 -3.68194,-2.011654 -0.503839,0.05867 -0.852659,0.05867 -3.048911,0 -4.663797,-1.567413 -1.601967,-1.575796 -1.601967,-4.568131 0,-2.992336 1.601967,-4.568131 1.601967,-1.575796 4.663797,-1.575796 3.061819,0 4.663789,1.575796 1.61489,1.567413 1.61489,4.568131 0,4.358583 -3.35897,5.666158 0.47801,1.223756 1.8216,1.223756 0.7493,0 1.64072,-0.125728 z m -6.756679,-2.933662 q 4.030759,0 4.030759,-4.928552 0,-4.936935 -4.030759,-4.936935 -1.963707,0 -2.997234,1.28243 -1.020608,1.274047 -1.020608,3.654505 0,2.405602 1.020608,3.671268 1.020608,1.257284 2.997234,1.257284 z m 21.148549,-2.740879 q 0,2.053564 -1.29191,3.000718 -1.27899,0.947153 -3.90156,0.947153 -5.28391,0 -5.28391,-3.914343 v -8.138816 h 2.11873 v 8.013088 q 0,2.833079 3.16518,2.833079 1.58905,0 2.32543,-0.670551 0.74931,-0.670552 0.74931,-2.179292 v -7.996324 h 2.11873 z m 15.52875,3.72156 h -9.52137 v -11.826848 h 9.44386 v 1.19861 h -7.32513 v 3.662887 h 7.04091 v 1.19861 h -7.04091 v 4.568131 h 7.40264 z m 14.86988,-10.519274 q -1.62781,-0.360421 -3.08767,-0.360421 -1.65364,0 -2.70009,0.494531 -1.03353,0.486151 -1.03353,1.391394 0,1.072883 2.72593,1.885926 2.01538,0.603497 2.66134,0.838189 0.65887,0.234693 1.33066,0.645406 0.6718,0.410713 1.07229,0.972299 0.41341,0.553205 0.41341,1.248903 0,1.726669 -1.79576,2.682205 -1.78283,0.947153 -4.21162,0.947153 -2.35127,0 -4.12119,-0.603496 l 0.43925,-1.181846 q 2.07997,0.611877 3.63026,0.611877 1.80868,0 2.89388,-0.603496 1.09812,-0.611878 1.09812,-1.676378 0,-0.787898 -0.71055,-1.332721 -0.71055,-0.553205 -2.62257,-1.123173 -1.9637,-0.586733 -2.54506,-0.79628 -0.56844,-0.217929 -1.13688,-0.595115 -0.56844,-0.377185 -0.8785,-0.84657 -0.31006,-0.469386 -0.31006,-1.022591 0,-1.466831 1.62781,-2.288256 1.6278,-0.821428 4.12119,-0.821428 1.82159,0 3.61734,0.360421 z m 18.69392,-0.192783 h -5.6198 v 10.712057 h -2.10582 v -10.712057 h -5.64564 v -1.114791 h 13.37126 z" />
        <path
           d="m 57.898947,-108.37792 c -1.53949,0.57035 -3.243633,0.85618 -5.112302,0.85761 -2.337089,0.002 -4.015189,-0.46174 -5.034918,-1.39049 -1.011053,-0.92862 -1.327931,-2.27316 -0.950712,-4.03389 0.364549,-1.7016 1.237862,-3.03325 2.620195,-3.99499 1.38378,-0.96697 3.283069,-1.45266 5.698357,-1.45686 0.870785,-0.002 1.719353,0.0614 2.545692,0.18865 0.826458,0.1273 1.477416,0.297 1.952814,0.5091 l -0.897654,0.9595 c -1.119236,-0.39425 -2.396023,-0.59016 -3.830244,-0.58781 -1.664258,0.003 -2.976803,0.35619 -3.937868,1.06026 -0.959815,0.69898 -1.601897,1.80544 -1.92636,3.31936 -0.623379,2.90864 0.706147,4.36131 3.989928,4.35849 1.390859,-0.001 2.869311,-0.24988 4.435448,-0.74616 z m 12.029603,-10.04437 c 2.028872,-0.004 3.474258,0.45997 4.335685,1.39057 0.871168,0.92574 1.1157,2.2764 0.733551,4.05173 -0.379966,1.76518 -1.201223,3.11423 -2.463566,4.04712 -1.262018,0.93266 -2.911287,1.39968 -4.947495,1.40123 -2.018365,0.002 -3.462068,-0.46033 -4.331575,-1.38554 -0.859788,-0.93006 -1.099753,-2.27904 -0.719939,-4.04721 0.379863,-1.76839 1.199876,-3.11918 2.460247,-4.05237 1.260695,-0.93343 2.904956,-1.402 4.933092,-1.40553 z m -2.11172,9.82055 c 2.669623,-0.002 4.318463,-1.46063 4.94566,-4.37545 0.628396,-2.9204 -0.393293,-4.37863 -3.064208,-4.37424 -1.300753,0.002 -2.37473,0.38293 -3.222046,1.14229 -0.837548,0.75425 -1.407458,1.83491 -1.709815,3.24196 -0.30552,1.42177 -0.200926,2.50623 0.313783,3.25352 0.515808,0.7424 1.427949,1.11305 2.736626,1.11192 z m 21.114591,0.85278 -2.343667,0.002 -4.724453,-8.28482 -1.786306,8.28992 -2.108582,0.002 2.261503,-10.49893 2.354287,-0.004 4.766951,8.21056 1.77364,-8.22182 2.074499,-0.004 z m 16.703129,1.7239 c -0.77823,0.13467 -1.53323,0.20221 -2.265,0.20266 -1.89356,0.001 -2.99082,-0.59427 -3.29226,-1.78626 -0.34305,0.035 -0.630707,0.0526 -0.86298,0.0528 -2.029802,0.002 -3.481437,-0.46163 -4.355375,-1.38946 -0.864161,-0.93268 -1.104766,-2.28548 -0.721859,-4.05865 0.382957,-1.7734 1.208334,-3.12801 2.476341,-4.06385 1.268334,-0.93608 2.922161,-1.40598 4.961793,-1.40952 2.04037,-0.004 3.4937,0.46125 4.35952,1.39448 0.87561,0.92836 1.12081,2.28285 0.73555,4.0632 -0.55952,2.58558 -2.04267,4.26693 -4.44872,5.04414 0.16154,0.72528 0.68992,1.08761 1.58522,1.08698 0.49936,-3.5e-4 1.05419,-0.038 1.66452,-0.113 z m -6.188262,-2.60391 c 2.684752,-0.002 4.343712,-1.46478 4.976022,-4.38785 0.63352,-2.92867 -0.39319,-4.39102 -3.07924,-4.38661 -1.30813,0.002 -2.388397,0.38403 -3.240918,1.14553 -0.842695,0.75639 -1.416409,1.84011 -1.721229,3.25114 -0.308008,1.4258 -0.2034,2.51332 0.313826,3.26273 0.518334,0.74449 1.435445,1.11619 2.751539,1.11506 z m 21.694022,-2.46003 c -0.26459,1.21971 -0.88966,2.11117 -1.87507,2.67436 -0.97658,0.56308 -2.34077,0.84524 -4.0923,0.84659 -3.5273,0.003 -5.03866,-1.15714 -4.53568,-3.47979 l 1.56927,-7.24649 2.12188,-0.004 -1.54587,7.13592 c -0.36425,1.68144 0.51,2.52117 2.62332,2.51935 1.06128,-9.2e-4 1.8811,-0.20064 2.45937,-0.5992 0.58698,-0.39862 0.97764,-1.0459 1.17193,-1.94187 l 1.5451,-7.12497 2.12505,-0.004 z m 14.8713,3.30317 -9.56437,0.007 2.28973,-10.54444 9.49198,-0.0163 -0.2327,1.06991 -7.36341,0.012 -0.70967,3.26693 7.07625,-0.009 -0.23261,1.06955 -7.07583,0.009 -0.88475,4.07293 7.43792,-0.007 z m 17.01888,-9.41047 c -1.04759,-0.21297 -2.06195,-0.31863 -3.0431,-0.31701 -1.11117,0.002 -2.05026,0.15059 -2.81735,0.44625 -0.75721,0.29062 -1.19448,0.70543 -1.31187,1.24445 -0.13912,0.63881 0.65386,1.19897 2.37933,1.68061 1.27572,0.3576 2.11549,0.60604 2.51914,0.74526 0.41234,0.13922 0.81763,0.33088 1.21586,0.57496 0.39826,0.2441 0.69555,0.53325 0.89185,0.86747 0.20608,0.32921 0.26393,0.70103 0.17356,1.11543 -0.22429,1.02846 -1.00205,1.82775 -2.33303,2.39782 -1.32087,0.56492 -2.7969,0.84795 -4.42799,0.8492 -1.57858,0.001 -2.92255,-0.17729 -4.03208,-0.53543 l 0.6718,-1.05524 c 1.3167,0.36288 2.49556,0.54391 3.53648,0.54302 1.21466,-0.001 2.22573,-0.18153 3.03311,-0.54149 0.81726,-0.36502 1.29505,-0.86451 1.43325,-1.49844 0.1023,-0.46923 -0.05,-0.86583 -0.45674,-1.18976 -0.40567,-0.32891 -1.21386,-0.6623 -2.42442,-1.00014 -1.24283,-0.34771 -2.04576,-0.58366 -2.40896,-0.70791 -0.35342,-0.12925 -0.69649,-0.30589 -1.02922,-0.52992 -0.33271,-0.22403 -0.57271,-0.4756 -0.72001,-0.75473 -0.14729,-0.27913 -0.18509,-0.58336 -0.11339,-0.91269 0.19012,-0.87326 0.88483,-1.55533 2.08435,-2.04625 1.19978,-0.49105 2.63731,-0.73807 4.31276,-0.74098 1.22434,-0.002 2.41685,0.10314 3.5775,0.31584 z m 18.92354,-0.20314 -5.68419,0.009 -2.09382,9.58227 -2.12734,0.002 2.09269,-9.58045 -5.70241,0.009 0.21755,-0.9969 13.51582,-0.0233 z"
           id="path19"
           style="font-size:26.4583px;font-family:Monospace;-inkscape-font-specification:Monospace;fill-rule:evenodd;stroke:#000000;stroke-width:3.6;stroke-linecap:round;stroke-linejoin:bevel"
           aria-label="CONQUEST"
           inkscape:original-d="m 57.580909,-75.101894 q -2.14457,0.963917 -4.973851,0.963917 -3.539831,0 -5.387261,-1.575795 -1.834511,-1.575796 -1.834511,-4.559749 0,-2.883371 1.782835,-4.509458 1.782834,-1.634471 5.438937,-1.634471 1.317748,0 2.609657,0.217932 1.291909,0.217931 2.079974,0.57835 l -0.697631,1.081264 q -1.821592,-0.670552 -3.992,-0.670552 -2.519222,0 -3.746536,1.190229 -1.227314,1.181847 -1.227314,3.746706 0,4.928552 4.97385,4.928552 2.105812,0 4.314977,-0.838189 z m 9.9477,-11.315556 q 3.061825,0 4.663792,1.575798 1.614887,1.567413 1.614887,4.568131 0,2.983953 -1.601968,4.559749 -1.601967,1.575795 -4.676711,1.575795 -3.048906,0 -4.663792,-1.567413 -1.601967,-1.575796 -1.601967,-4.568131 0,-2.992336 1.601967,-4.568131 1.601967,-1.575798 4.663792,-1.575798 z m 0,11.072481 q 4.030757,0 4.030757,-4.928552 0,-4.936935 -4.030757,-4.936935 -1.963702,0 -2.997229,1.28243 -1.020608,1.274047 -1.020608,3.654505 0,2.405602 1.020608,3.671268 1.020608,1.257284 2.997229,1.257284 z m 21.406935,0.980681 h -2.351275 l -6.53706,-9.337427 v 9.337427 h -2.118731 v -11.826848 h 2.364194 l 6.562898,9.253608 v -9.253608 h 2.079974 z m 17.104876,1.952981 q -1.12396,0.226311 -2.22208,0.226311 -2.8422,0 -3.68194,-2.011654 -0.503839,0.05867 -0.852659,0.05867 -3.048911,0 -4.663797,-1.567413 -1.601967,-1.575796 -1.601967,-4.568131 0,-2.992336 1.601967,-4.568131 1.601967,-1.575796 4.663797,-1.575796 3.061819,0 4.663789,1.575796 1.61489,1.567413 1.61489,4.568131 0,4.358583 -3.35897,5.666158 0.47801,1.223756 1.8216,1.223756 0.7493,0 1.64072,-0.125728 z m -6.756679,-2.933662 q 4.030759,0 4.030759,-4.928552 0,-4.936935 -4.030759,-4.936935 -1.963707,0 -2.997234,1.28243 -1.020608,1.274047 -1.020608,3.654505 0,2.405602 1.020608,3.671268 1.020608,1.257284 2.997234,1.257284 z m 21.148549,-2.740879 q 0,2.053564 -1.29191,3.000718 -1.27899,0.947153 -3.90156,0.947153 -5.28391,0 -5.28391,-3.914343 v -8.138816 h 2.11873 v 8.013088 q 0,2.833079 3.16518,2.833079 1.58905,0 2.32543,-0.670551 0.74931,-0.670552 0.74931,-2.179292 v -7.996324 h 2.11873 z m 15.52875,3.72156 h -9.52137 v -11.826848 h 9.44386 v 1.19861 h -7.32513 v 3.662887 h 7.04091 v 1.19861 h -7.04091 v 4.568131 h 7.40264 z m 14.86988,-10.519274 q -1.62781,-0.360421 -3.08767,-0.360421 -1.65364,0 -2.70009,0.494531 -1.03353,0.486151 -1.03353,1.391394 0,1.072883 2.72593,1.885926 2.01538,0.603497 2.66134,0.838189 0.65887,0.234693 1.33066,0.645406 0.6718,0.410713 1.07229,0.972299 0.41341,0.553205 0.41341,1.248903 0,1.726669 -1.79576,2.682205 -1.78283,0.947153 -4.21162,0.947153 -2.35127,0 -4.12119,-0.603496 l 0.43925,-1.181846 q 2.07997,0.611877 3.63026,0.611877 1.80868,0 2.89388,-0.603496 1.09812,-0.611878 1.09812,-1.676378 0,-0.787898 -0.71055,-1.332721 -0.71055,-0.553205 -2.62257,-1.123173 -1.9637,-0.586733 -2.54506,-0.79628 -0.56844,-0.217929 -1.13688,-0.595115 -0.56844,-0.377185 -0.8785,-0.84657 -0.31006,-0.469386 -0.31006,-1.022591 0,-1.466831 1.62781,-2.288256 1.6278,-0.821428 4.12119,-0.821428 1.82159,0 3.61734,0.360421 z m 18.69392,-0.192783 h -5.6198 v 10.712057 h -2.10582 v -10.712057 h -5.64564 v -1.114791 h 13.37126 z" />
      </g>
    </g>
    <g
       id="g21"
       transform="translate(75.013562,76.459594)">
      <path
         style="font-size:79.375px;font-family:Monospace;-inkscape-font-specification:Monospace;fill:#272727;fill-opacity:1;fill-rule:evenodd;stroke:#272727;stroke-width:8;stroke-linecap:butt;stroke-linejoin:bevel;stroke-dasharray:none;stroke-opacity:1"
         d="m -130.40868,-97.467865 h -28.56414 v -54.686585 h 28.3316 V -141.612 H -147.617 v 33.602 h 17.20832 z"
         id="path21"
         aria-label="E"
         sodipodi:nodetypes="ccccccccc" />
      <path
         style="font-size:79.375px;font-family:Monospace;-inkscape-font-specification:Monospace;display:inline;fill:none;fill-opacity:1;fill-rule:evenodd;stroke:#000000;stroke-width:3.6;stroke-linecap:butt;stroke-linejoin:miter;stroke-dasharray:86.4, 3.6;stroke-dashoffset:46.8;stroke-opacity:1"
         d="m -130.40868,-97.467865 h -28.56414 v -54.686585 h 28.3316 V -141.612 H -147.617 v 9.437 h 13.223 v 10.542 h -13.223 v 13.623 h 17.20832 z"
         id="text21"
         aria-label="E"
         sodipodi:nodetypes="ccccccccccccc" />
      <text
         xml:space="preserve"
         style="font-style:normal;font-variant:normal;font-weight:normal;font-stretch:normal;font-size:44.8074px;font-family:Monospace;-inkscape-font-specification:Monospace;fill:#272727;fill-opacity:1;fill-rule:evenodd;stroke:#272727;stroke-width:4;stroke-linecap:butt;stroke-linejoin:miter;stroke-dasharray:none;stroke-dashoffset:46.8;stroke-opacity:1"
         x="-122.64833"
         y="-121.3927"
         id="text22"
         transform="scale(1.0076497,0.99240837)"><tspan
           sodipodi:role="line"
           id="tspan21"
           style="fill:none;stroke:#000000;stroke-width:4;stroke-dasharray:none;stroke-opacity:1"
           x="-122.64833"
           y="-121.3927">XO</tspan></text>
      <text
         xml:space="preserve"
         style="font-style:normal;font-variant:normal;font-weight:normal;font-stretch:normal;font-size:11.0119px;font-family:Monospace;-inkscape-font-specification:Monospace;fill:#272727;fill-opacity:1;fill-rule:evenodd;stroke:#272727;stroke-width:0.9;stroke-linecap:butt;stroke-linejoin:miter;stroke-dasharray:none;stroke-dashoffset:176.882;stroke-opacity:1"
         x="-124.83771"
         y="-103.68979"
         id="text23"><tspan
           sodipodi:role="line"
           id="tspan22"
           style="fill:#272727;fill-opacity:1;stroke:#272727;stroke-width:0.9;stroke-dasharray:none;stroke-opacity:1"
           x="-124.83771"
           y="-103.68979">CONQUEST</tspan></text>
    </g>
    <g
       id="g25"
       transform="translate(-97.549123,69.677945)">
      <path
         style="font-size:79.375px;font-family:Monospace;-inkscape-font-specification:Monospace;fill:#000000;fill-opacity:1;fill-rule:evenodd;stroke:#000000;stroke-width:4.1;stroke-dasharray:none;stroke-dashoffset:176.882;stroke-opacity:1"
         d="M 102.92418,-212.52199 H 74.360031 v -54.68658 h 28.331609 v 5.54229 H 80.716232 v 16.93696 h 21.122738 v 5.54229 H 80.716232 v 21.12274 h 22.207948 z m 80.49896,-55.73303 c 6.12366,0 10.78746,2.42879 13.9914,7.28638 3.22977,4.83175 4.84466,11.87266 4.84466,21.12274 0,9.19841 -1.60197,16.2264 -4.80591,21.08398 -3.20394,4.85759 -7.88066,7.28638 -14.03015,7.28638 -6.09782,0 -10.76162,-2.41587 -13.99139,-7.24762 -3.20394,-4.85759 -4.80591,-11.8985 -4.80591,-21.12274 0,-9.22425 1.60197,-16.26516 4.80591,-21.12274 3.20394,-4.85759 7.86774,-7.28638 13.99139,-7.28638 z m 0,51.19843 c 8.06153,0 12.09229,-7.59644 12.09229,-22.78931 0,-15.21871 -4.03076,-22.82807 -12.09229,-22.82807 -3.92741,0 -6.92464,1.97663 -8.9917,5.92988 -2.04122,3.92741 -3.06183,9.56014 -3.06183,16.89819 0,7.41557 1.02061,13.07414 3.06183,16.97571 2.04122,3.87573 5.03845,5.8136 8.9917,5.8136 z"
         id="text24"
         aria-label="EXO"
         sodipodi:nodetypes="cccccccccccccscssscsssssscscs" />
      <path
         d="M 182.01317,-180.22162 H 166.9946 l -29.542,-47.6963 -29.29444,47.6963 H 93.139605 l 37.216315,-59.33155 -37.051285,-57.10353 h 15.513685 l 28.63428,46.12842 28.88184,-46.12842 h 14.85352 l -36.47363,57.10353 z"
         style="font-size:79.375px;font-family:Monospace;-inkscape-font-specification:Monospace;fill:#000000;fill-opacity:1;fill-rule:evenodd;stroke:#000000;stroke-width:6.3;stroke-linejoin:miter;stroke-dasharray:none;stroke-dashoffset:176.882;stroke-opacity:1"
         id="path1-8" />
      <text
         xml:space="preserve"
         style="font-style:normal;font-variant:normal;font-weight:normal;font-stretch:normal;font-size:18.6274px;font-family:Monospace;-inkscape-font-specification:Monospace;fill:#4f4f4f;fill-opacity:1;fill-rule:evenodd;stroke:none;stroke-width:4.10001;stroke-linecap:butt;stroke-linejoin:miter;stroke-dasharray:none;stroke-dashoffset:176.882;stroke-opacity:1"
         x="-172.97345"
         y="-238.88786"
         id="text25"
         transform="rotate(57.376477)"><tspan
           sodipodi:role="line"
           id="tspan24"
           style="font-size:18.6274px;fill:#4f4f4f;fill-opacity:1;stroke:none;stroke-width:4.09999"
           x="-172.97345"
           y="-238.88786">CONQUEST</tspan></text>
    </g>
    <g
       id="g4"
       transform="matrix(1.3982457,0,0,1.410111,261.62852,90.028878)"
       style="stroke-width:0.712167">
      <path
         style="fill:none;fill-opacity:1;fill-rule:evenodd;stroke:#000000;stroke-width:9.89919;stroke-linecap:butt;stroke-linejoin:miter;stroke-dasharray:59.3951, 9.89919;stroke-dashoffset:247.48;stroke-opacity:1"
         d="m -284.44794,-204.04888 h -36.28852 v 32.92564 h 36.46994"
         id="path2" />
      <path
         style="fill:none;fill-opacity:1;fill-rule:evenodd;stroke:#000000;stroke-width:9.89919;stroke-linecap:butt;stroke-linejoin:miter;stroke-dasharray:39.5965, 9.89919;stroke-dashoffset:52.4653;stroke-opacity:1"
         d="m -320.9179,-188.00442 h 28.12361"
         id="path3" />
      <path
         style="fill:none;fill-opacity:1;fill-rule:evenodd;stroke:#000000;stroke-width:9.89912;stroke-linecap:butt;stroke-linejoin:miter;stroke-dasharray:39.5965, 9.89912;stroke-dashoffset:70.2837;stroke-opacity:1"
         d="m -231.38196,-201.89333 c -51.82724,-14.05084 -53.67699,40.41485 0,29.39209"
         id="path4"
         sodipodi:nodetypes="cc" />
      <text
         xml:space="preserve"
         style="font-size:13.6227px;font-family:Monospace;-inkscape-font-specification:Monospace;fill:#000000;fill-opacity:1;fill-rule:evenodd;stroke:none;stroke-width:9.4006;stroke-linecap:butt;stroke-linejoin:miter;stroke-dasharray:none;stroke-dashoffset:95.9107;stroke-opacity:1"
         x="-327.87106"
         y="-152.0672"
         id="text4"><tspan
           sodipodi:role="line"
           id="tspan4"
           style="font-size:13.6227px;fill:#000000;fill-opacity:1;stroke:none;stroke-width:9.4006;stroke-dasharray:none"
           x="-327.87106"
           y="-152.0672">Exo-Conquest</tspan></text>
    </g>
    <path
       d="m -193.14747,-247.05782 h -10.8842 v -54.68658 h 10.79559 v 5.54229 h -8.3736 v 16.93695 h 8.04869 v 5.5423 h -8.04869 v 21.12273 h 8.46221 z m 19.0658,0 h -2.59921 l -4.12034,-15.813 -4.26803,15.813 h -2.45152 l 5.47902,-20.23133 -5.47902,-20.1538 h 2.64351 l 4.13511,15.6967 4.20895,-15.6967 h 2.45153 l -5.44948,19.92127 z m 11.63738,-41.35406 q 3.17517,0 5.05074,5.81359 1.87557,5.8136 1.87557,15.30914 0,9.57306 -1.87557,15.42542 -1.87557,5.85234 -5.05074,5.85234 -3.18994,0 -5.06551,-5.81359 -1.8608,-5.85235 -1.8608,-15.46417 0,-9.53429 1.87557,-15.30914 1.87556,-5.81359 5.05074,-5.81359 z m 0,37.1295 q 2.09709,0 3.30808,-4.65088 1.211,-4.65086 1.211,-11.27837 0,-6.97631 -1.19623,-11.47218 -1.19622,-4.49584 -3.32285,-4.49584 -2.1414,0 -3.32286,4.45709 -1.18146,4.41833 -1.18146,11.51093 0,6.74377 1.19623,11.35588 1.19623,4.57337 3.30809,4.57337 z m 43.04944,0.81391 q -2.45153,4.45708 -5.68578,4.45708 -4.0465,0 -6.15836,-7.28636 -2.09709,-7.28637 -2.09709,-21.08399 0,-13.33251 2.03802,-20.85143 2.03802,-7.55768 6.21743,-7.55768 1.50636,0 2.98319,1.00768 1.47682,1.0077 2.37768,2.67427 l -0.79748,4.99969 q -2.08232,-3.10059 -4.56339,-3.10059 -2.87981,0 -4.28279,5.50354 -1.40298,5.46478 -1.40298,17.32452 0,22.78931 5.68577,22.78931 2.40723,0 4.9326,-3.87573 z m 11.40107,-37.94341 q 3.17518,0 5.05074,5.81359 1.87557,5.8136 1.87557,15.30914 0,9.57306 -1.87557,15.42542 -1.87556,5.85234 -5.05074,5.85234 -3.18994,0 -5.0655,-5.81359 -1.8608,-5.85235 -1.8608,-15.46417 0,-9.53429 1.87556,-15.30914 1.87557,-5.81359 5.05074,-5.81359 z m 0,37.1295 q 2.0971,0 3.30809,-4.65088 1.211,-4.65086 1.211,-11.27837 0,-6.97631 -1.19623,-11.47218 -1.19623,-4.49584 -3.32286,-4.49584 -2.14139,0 -3.32285,4.45709 -1.18146,4.41833 -1.18146,11.51093 0,6.74377 1.19623,11.35588 1.19623,4.57337 3.30808,4.57337 z m 24.116549,4.22456 h -2.303846 v -25.88989 q 0,-5.38728 -0.664571,-7.79023 -0.649802,-2.44171 -2.052786,-2.44171 -2.111859,0 -4.533851,6.89881 v 29.22302 h -2.303846 v -40.38513 h 2.303846 v 5.92986 q 2.481065,-6.89879 5.227959,-6.89879 4.327095,0 4.327095,13.72009 z m 18.091102,15.968 h -2.303846 v -21.78161 q -0.708876,2.98431 -2.038018,4.92218 -1.314374,1.93786 -2.77643,1.93786 -2.643516,0 -4.179414,-6.08489 -1.535897,-6.0849 -1.535897,-15.50292 0,-9.03046 1.59497,-14.92157 1.594971,-5.89111 4.253255,-5.89111 2.909344,0 4.681534,6.20116 v -5.23223 h 2.303846 z m -2.303846,-28.33159 v -16.78192 q -1.654044,-6.97632 -3.987426,-6.97632 -1.905104,0 -3.012723,4.53461 -1.107618,4.5346 -1.107618,11.35589 0,6.93756 1.033777,11.39465 1.048546,4.4571 2.86504,4.4571 0.871326,0 1.757421,-1.24023 0.886095,-1.24025 1.668812,-3.72071 0.782717,-2.48047 0.782717,-3.02307 z m 20.970909,-7.63519 h -10.559295 q 0,6.86004 1.506361,11.31714 1.521129,4.45708 3.721598,4.45708 2.097091,0 4.327096,-1.97662 l 0.398742,4.84466 q -2.038018,2.40295 -4.755375,2.40295 -3.426233,0 -5.523323,-5.77483 -2.097091,-5.77484 -2.097091,-15.58045 0,-9.6118 1.875567,-15.30913 1.890335,-5.73608 4.873521,-5.73608 2.658284,0 4.445242,5.30974 1.786957,5.30977 1.786957,14.14642 z m -2.510601,-4.92218 q 0,-4.7284 -1.122387,-7.94526 -1.122387,-3.25561 -2.510602,-3.25561 -1.786957,0 -2.968417,3.10058 -1.166691,3.1006 -1.299606,8.10029 z m 20.173414,24.92096 h -2.303846 v -5.96863 q -2.481065,6.93756 -5.227959,6.93756 -4.327095,0 -4.327095,-13.75885 v -27.59521 h 2.303846 v 25.85113 q 0,5.15472 0.620266,7.71271 0.620266,2.51923 2.097091,2.51923 2.111859,0 4.533851,-6.89881 v -29.18426 h 2.303846 z m 16.569973,-34.6103 q -1.93464,-1.66656 -3.647757,-1.66656 -1.875567,0 -2.968417,1.66656 -1.09285,1.62781 -1.09285,4.37958 0,1.74408 0.50212,3.06183 0.50212,1.279 2.008482,2.40296 l 2.200468,1.66655 q 1.521129,1.12397 2.481065,2.71302 0.959936,1.55029 1.43252,3.79823 0.487352,2.20916 0.487352,5.15471 0,5.77484 -1.846031,9.14674 -1.84603,3.33311 -4.696302,3.33311 -2.835503,0 -4.681533,-2.24791 l 0.443047,-5.23225 q 1.93464,2.40297 4.149877,2.40297 1.919872,0 3.1161,-1.86037 1.210996,-1.8991 1.210996,-4.99968 0,-2.09289 -0.605498,-3.72071 -0.59073,-1.66656 -2.805967,-3.4494 -1.786958,-1.43401 -2.628747,-2.13164 -0.841791,-0.7364 -1.565434,-2.13167 -0.723644,-1.39526 -1.107619,-3.33313 -0.369206,-1.93786 -0.369206,-4.34081 0,-5.23225 1.742653,-8.29408 1.742653,-3.06181 4.622461,-3.06181 1.860799,0 4.135108,1.66656 z m 19.9075941,32.7887 q -2.318613,2.79053 -4.563386,2.79053 -4.120339,0 -4.120339,-11.43342 v -24.68841 h -2.953651 v -5.23223 h 2.953651 v -11.04584 h 2.24477204 v 11.04584 H 5.8103191 v 5.23223 H 0.58236114 v 23.09936 q 0,3.68195 0.62026296,5.7361 0.62027,2.01538 1.683585,2.01538 1.890332,0 3.736361,-2.20918 z"
       id="path62"
       style="font-size:48.9972px;font-family:Monospace;-inkscape-font-specification:Monospace;display:inline;fill-rule:evenodd;stroke:#000000;stroke-width:3.5;stroke-dasharray:none;stroke-dashoffset:0"
       aria-label="Exo Conqeust"
       mask="none" />
  </g>
</svg>
